<svg width="40" height="40" viewBox="0 0 40 40" fill="none" xmlns="http://www.w3.org/2000/svg">
<rect width="40" height="40" rx="5" fill="white"/>
<path d="M15.5289 24.471C10.5899 19.533 8.58889 13.5269 11.0579 11.0579C13.0479 9.06689 17.3379 9.98189 21.5129 12.9999M24.4709 15.5289C29.4099 20.468 31.4109 26.473 28.9419 28.942C26.9529 30.931 22.6719 30.02 18.4999 27.01M28.9419 11.0579C31.4119 13.5269 29.4099 19.532 24.4719 24.471C19.5319 29.41 13.5269 31.411 11.0579 28.942C9.06689 26.952 9.98189 22.662 12.9999 18.4859C13.7631 17.4351 14.6088 16.4466 15.5289 15.5299C20.4679 10.5899 26.4729 8.58888 28.9419 11.0579Z" stroke="#0C6CF2" stroke-width="1.125" stroke-linecap="round"/>
<path d="M22.4999 20C22.4999 20.6631 22.2365 21.2989 21.7676 21.7678C21.2988 22.2366 20.6629 22.5 19.9999 22.5C19.3368 22.5 18.701 22.2366 18.2321 21.7678C17.7633 21.2989 17.4999 20.6631 17.4999 20C17.4999 19.337 17.7633 18.7011 18.2321 18.2322C18.701 17.7634 19.3368 17.5 19.9999 17.5C20.6629 17.5 21.2988 17.7634 21.7676 18.2322C22.2365 18.7011 22.4999 19.337 22.4999 20Z" stroke="#0C6CF2" stroke-width="1.125"/>
</svg>
